<svg width="auto" height="auto" viewBox="0 0 1778 462" fill="none" xmlns="http://www.w3.org/2000/svg">
    <path fill-rule="evenodd" clip-rule="evenodd" d="M6.10352e-05 84.8875L37.0417 108.887C74.0834 132.887 148.167 96.8875 222.25 108.887C296.333 120.887 370.417 180.887 444.5 144.887C518.583 108.887 592.667 60.8875 666.75 18.8875C740.833 -23.1125 841.587 13.8167 915.67 43.8167C989.753 73.8167 1037.17 96.8875 1111.25 108.887C1185.33 120.887 1259.42 48.8875 1333.5 30.8875C1407.58 12.8875 1481.67 48.8875 1555.75 66.8875C1629.83 84.8875 1703.92 84.8875 1740.96 84.8875H1778V264.888H1740.96C1703.92 264.888 1629.83 264.888 1555.75 264.888C1481.67 264.888 1407.58 264.888 1333.5 264.888C1259.42 264.888 1185.33 264.888 1111.25 264.888C1037.17 264.888 963.083 264.888 889 264.888C814.917 264.888 740.833 264.888 666.75 264.888C592.667 264.888 518.583 264.888 444.5 264.888C370.417 264.888 296.333 264.888 222.25 264.888C148.167 264.888 74.0834 264.888 37.0417 264.888H6.10352e-05V84.8875Z" fill="#26CD86" />
    <path fill-rule="evenodd" clip-rule="evenodd" d="M6.10352e-05 84.8875L37.0417 108.887C74.0834 132.887 148.167 96.8875 222.25 108.887C296.333 120.887 370.417 180.887 444.5 144.887C518.583 108.887 592.667 60.8875 666.75 18.8875C740.833 -23.1125 841.587 13.8167 915.67 43.8167C989.753 73.8167 1037.17 96.8875 1111.25 108.887C1185.33 120.887 1259.42 48.8875 1333.5 30.8875C1407.58 12.8875 1481.67 48.8875 1555.75 66.8875C1629.83 84.8875 1703.92 84.8875 1740.96 84.8875H1778V264.888H1740.96C1703.92 264.888 1629.83 264.888 1555.75 264.888C1481.67 264.888 1407.58 264.888 1333.5 264.888C1259.42 264.888 1185.33 264.888 1111.25 264.888C1037.17 264.888 963.083 264.888 889 264.888C814.917 264.888 740.833 264.888 666.75 264.888C592.667 264.888 518.583 264.888 444.5 264.888C370.417 264.888 296.333 264.888 222.25 264.888C148.167 264.888 74.0834 264.888 37.0417 264.888H6.10352e-05V84.8875Z" fill="url(#paint0_linear)" />
    <path fill-rule="evenodd" clip-rule="evenodd" d="M1778 377L1740.96 353C1703.92 329 1629.83 365 1555.75 353C1481.67 341 1407.58 281 1333.5 317C1259.42 353 1185.33 401 1111.25 443C1037.17 485 936.413 448.071 862.33 418.071C788.247 388.071 740.833 365 666.75 353C592.667 341 518.583 413 444.5 431C370.417 449 296.333 413 222.25 395C148.167 377 74.0834 377 37.0417 377L5.36141e-05 377L3.7878e-05 197L37.0417 197C74.0834 197 148.167 197 222.25 197C296.333 197 370.417 197 444.5 197C518.583 197 592.667 197 666.75 197C740.833 197 814.917 197 889 197C963.083 197 1037.17 197 1111.25 197C1185.33 197 1259.42 197 1333.5 197C1407.58 197 1481.67 197 1555.75 197C1629.83 197 1703.92 197 1740.96 197L1778 197L1778 377Z" fill="#26CD86" />
    <path fill-rule="evenodd" clip-rule="evenodd" d="M1778 377L1740.96 353C1703.92 329 1629.83 365 1555.75 353C1481.67 341 1407.58 281 1333.5 317C1259.42 353 1185.33 401 1111.25 443C1037.17 485 936.413 448.071 862.33 418.071C788.247 388.071 740.833 365 666.75 353C592.667 341 518.583 413 444.5 431C370.417 449 296.333 413 222.25 395C148.167 377 74.0834 377 37.0417 377L5.36141e-05 377L3.7878e-05 197L37.0417 197C74.0834 197 148.167 197 222.25 197C296.333 197 370.417 197 444.5 197C518.583 197 592.667 197 666.75 197C740.833 197 814.917 197 889 197C963.083 197 1037.17 197 1111.25 197C1185.33 197 1259.42 197 1333.5 197C1407.58 197 1481.67 197 1555.75 197C1629.83 197 1703.92 197 1740.96 197L1778 197L1778 377Z" fill="url(#paint1_linear)" />
    <defs>
        <linearGradient id="paint0_linear" x1="889" y1="0" x2="889" y2="264.888" gradientUnits="userSpaceOnUse">
            <stop stop-color="white" />
            <stop offset="1" stop-color="white" stop-opacity="0" />
        </linearGradient>
        <linearGradient id="paint1_linear" x1="877.888" y1="705.388" x2="882.95" y2="196.94" gradientUnits="userSpaceOnUse">
            <stop stop-color="#6D6D6D" />
            <stop offset="1" stop-color="white" stop-opacity="0" />
        </linearGradient>
    </defs>
</svg>
